<svg version="1" xmlns="http://www.w3.org/2000/svg" width="322.667" height="322.667" viewBox="0 0 242.000000 242.000000"><path d="M100.1 1.6C76.8 5.5 53.3 17.7 35.6 35.2c-5.9 5.9-6.3 6-11.1 5.9-13-.4-21.5 13.2-15.6 24.8l2 3.7-3.4 9C2.7 91.4 1 100.6.3 116.5c-1.1 28.7 6.4 53.4 23.1 76 44.4 60 130.7 66.6 183.2 14.1 47.2-47.3 47.2-123.9 0-171.2C178.9 7.7 139-4.9 100.1 1.6zm33.6 7.5c60.7 6.7 105.7 62.4 99.4 122.9-6.5 62-61.9 107.5-123.1 101.1-73.3-7.7-119.9-81.5-94.9-150.5l2.9-8.1 5.3.3c13.3.7 21.8-12.9 15.6-25.1l-2.2-4.2 6.6-6C64.4 19.9 91 8.9 119.3 8.1c2.6 0 9.1.4 14.4 1zm-103 40.4c3.5 2.3 4.9 8.2 2.9 12.8-3.4 8.3-15 8.5-19 .3-1.7-3.6-1.8-4.3-.5-8 2.4-6.9 10.1-9.3 16.6-5.1z"/><path d="M75 73.8c0 .4.5 1.3 1 1.8.7.7-3.6 15.3-13.4 45.1-7.9 24.3-14.7 44.6-15.1 45.2-.3.6-1.3 1.1-2.1 1.1s-1.4.7-1.4 1.5c0 1.2 1.9 1.5 11 1.5 8.8 0 11-.3 11-1.4 0-.8-.5-1.6-1.1-1.8-.8-.3-.3-3.2 1.8-9.4l3-8.9 16.5-.3 16.6-.2 3.1 9.2c1.8 5.4 2.7 9.4 2.1 9.6-.5.2-1 1-1 1.8 0 1.1 2.2 1.4 11.5 1.4 9.1 0 11.5-.3 11.5-1.4 0-.7-.8-1.6-1.7-1.8-1.4-.4-5.3-11.6-16.7-47.2L96.6 73H85.8c-5.9 0-10.8.4-10.8.8zM92.5 115c3 9.6 5.8 18.3 6.1 19.2.5 1.7-.5 1.8-12 1.8-6.9 0-12.6-.3-12.6-.7 0-.6 2.6-9 11.2-36.3.6-1.9 1.3-3.1 1.4-2.5.2.5 2.8 8.9 5.9 18.5zM137 100.9c0 1 .7 2.1 1.4 2.4 1.3.5 1.5 5.5 1.8 30.4.3 32.7.4 32.9 6.4 35.8 4.7 2.2 17 2 21.7-.4 2.9-1.5 3.7-1.6 3.7-.5s2 1.4 9.5 1.4c9 0 11.4-.8 8-2.7-1.2-.7-1.5-6-1.7-34.3l-.3-33.5-8.4-.3c-9-.3-12.1.8-8.8 3.2 1.5 1.2 1.7 3.7 1.7 26.8 0 24-.1 25.6-2 27.3-2.6 2.4-9.9 3.1-12.5 1.2-1.9-1.5-2-3-2.5-29.9l-.5-28.3-8.7-.3c-8.1-.3-8.8-.1-8.8 1.7z"/></svg>