<svg xmlns="http://www.w3.org/2000/svg" viewBox="0 0 163.18 98"><defs><style>.cls-1,.cls-2,.cls-3,.cls-4,.cls-5,.cls-6,.cls-7{fill:none;stroke:#0078a4;stroke-linecap:round;}.cls-1{stroke-width:5px;}.cls-2{stroke-width:4px;}.cls-3,.cls-4,.cls-5,.cls-6,.cls-7{stroke-width:3px;}.cls-4{stroke-dasharray:3.14 5.23;}.cls-5{stroke-dasharray:3.14 5.23 3.14 5.23;}.cls-6{stroke-dasharray:3.13 5.21;}.cls-7{stroke-dasharray:3.13 5.21 3.13 5.21;}</style></defs><title>SEO@2x</title><g id="Layer_2" data-name="Layer 2"><g id="Layer_1-2" data-name="Layer 1"><path class="cls-1" d="M160.68,6.08V91.92a3.6,3.6,0,0,1-3.59,3.58H6.09A3.6,3.6,0,0,1,2.5,91.92V6.08A3.6,3.6,0,0,1,6.09,2.5h151A3.6,3.6,0,0,1,160.68,6.08Z"/><line class="cls-2" x1="2.5" y1="20.38" x2="160.68" y2="20.38"/><path class="cls-2" d="M138.21,91c0,1.5-.06,3-.17,4.47H25.14C25,94,25,92.53,25,91a56.62,56.62,0,0,1,113.24,0Z"/><path class="cls-3" d="M131.83,94q0,.75-.11,1.5h-1.5"/><line class="cls-4" x1="124.99" y1="95.5" x2="119.24" y2="95.5"/><line class="cls-5" x1="116.63" y1="95.5" x2="35.57" y2="95.5"/><path class="cls-3" d="M33,95.5h-1.5q-.07-.75-.11-1.5"/><path class="cls-6" d="M31.31,88.79a50,50,0,0,1,.58-5.71"/><path class="cls-7" d="M32.37,80.53A50.36,50.36,0,0,1,131.92,91q0,.18,0,.37"/><path class="cls-2" d="M104,78.53a186.07,186.07,0,0,1-14.57,17H71.7c2.1-2.24,1.75-1.65,4.09-4a213.11,213.11,0,0,1,20.33-18c6.93-5.28,14.69-10.61,16-9.28S108.52,72.46,104,78.53Z"/></g></g></svg>