<svg xmlns="http://www.w3.org/2000/svg" viewBox="0 0 18.73 19.12"><defs><style>.cls-1{fill:#e5901a;}</style></defs><title>Checkbox@2x</title><g id="Layer_2" data-name="Layer 2"><g id="Layer_1-2" data-name="Layer 1"><g id="Checkmark"><path id="path-1" class="cls-1" d="M9.36,0A9.47,9.47,0,0,0,0,9.56a9.47,9.47,0,0,0,9.36,9.56,9.47,9.47,0,0,0,9.36-9.56A9.47,9.47,0,0,0,9.36,0ZM8.91,13.88a1.54,1.54,0,0,1-2.21,0L3.58,10.69a1.62,1.62,0,0,1,0-2.25,1.54,1.54,0,0,1,2.21,0l2,2.06,5.14-5.25a1.54,1.54,0,0,1,2.21,0,1.62,1.62,0,0,1,0,2.25Z"/></g></g></g></svg>