<svg xmlns="http://www.w3.org/2000/svg" viewBox="0 0 127.49 105"><defs><style>.cls-1{fill:#0078a4;stroke:#0078a4;stroke-width:2px;}</style></defs><title>Design@2x</title><g id="Layer_2" data-name="Layer 2"><g id="Layer_1-2" data-name="Layer 1"><path class="cls-1" d="M55.12,83.41l18.6-37.28,4.18,4.19L96.07,37.25l-2-2.76L78.26,45.88,51.53,19.12,62.79,3.37,60,1.4,47.1,19.48l4.19,4.2L14.06,42.29l0,1c-.85,16.66-2.51,35.2-11.44,44.44L1.4,88.92l2.51,2.52h0l2.4,2.4h0L8.58,96.1l1.2-1.2C18.64,86,36.55,84.37,54.13,83.46ZM9.52,90.63,32.8,67.31A5.12,5.12,0,1,0,30.32,65l-24,24-.19-.19c8.59-10.16,10.36-28.07,11.22-44.4L53.82,26.21,71.19,43.6,53,80.13C36.3,81,19.47,82.68,9.52,90.63Z"/><rect class="cls-1" x="17.79" y="100.21" width="108.7" height="3.79"/></g></g></svg>