<svg xmlns="http://www.w3.org/2000/svg" viewBox="0 0 103.2 105"><defs><style>.cls-1{fill:none;stroke:#0078a4;stroke-linecap:round;stroke-linejoin:round;stroke-width:6px;}</style></defs><title>Display@2x</title><g id="Layer_2" data-name="Layer 2"><g id="Layer_1-2" data-name="Layer 1"><g id="Slack"><g id="_Group_" data-name=" Group "><line class="cls-1" x1="81.29" y1="56.39" x2="77.06" y2="36.2"/><path class="cls-1" d="M85.14,74.77l1.06,5.06a8.78,8.78,0,0,1,0,1.88V83.6A9.17,9.17,0,0,1,83.58,90a8.81,8.81,0,0,1-6.3,2.67,9,9,0,0,1-8.74-7.22l-1.42-6.77"/><polyline class="cls-1" points="63.25 60.32 63.25 60.32 59.01 40.14"/><path class="cls-1" d="M55.15,21.75l-1.26-6a8.78,8.78,0,0,1,0-1.88V12.1a9.15,9.15,0,0,1,2.61-6.43A8.81,8.81,0,0,1,62.81,3a9,9,0,0,1,8.78,7.07l1.62,7.73"/><path class="cls-1" d="M48,82.88l1.34,6.41a8.78,8.78,0,0,1,0,1.88v1.74a9.19,9.19,0,0,1-2.61,6.43,8.82,8.82,0,0,1-6.3,2.66,9,9,0,0,1-8.77-7.06L30,86.82"/><line class="cls-1" x1="44.17" y1="64.48" x2="39.94" y2="44.31"/><line class="cls-1" x1="26.13" y1="68.4" x2="21.9" y2="48.25"/><path class="cls-1" d="M18,29.86l-1-4.58a8.78,8.78,0,0,1,0-1.88V21.65a9.19,9.19,0,0,1,2.61-6.43A8.82,8.82,0,0,1,26,12.56a8.94,8.94,0,0,1,8.77,7.06l1.32,6.28"/><path class="cls-1" d="M73.21,17.8l5-1.1a8.28,8.28,0,0,1,1.85,0h1.71a8.79,8.79,0,0,1,6.3,2.66,9.17,9.17,0,0,1,2.61,6.43,9,9,0,0,1-6.92,8.94l-6.7,1.46"/><path class="cls-1" d="M18,29.86,9.92,31.63A9.05,9.05,0,0,0,3,40.57,9.17,9.17,0,0,0,5.61,47a8.82,8.82,0,0,0,6.3,2.66h1.71a8.28,8.28,0,0,0,1.85,0l6.44-1.41"/><line class="cls-1" x1="59.01" y1="40.14" x2="39.94" y2="44.31"/><line class="cls-1" x1="55.15" y1="21.75" x2="36.08" y2="25.91"/><path class="cls-1" d="M26.13,68.4l-6.95,1.52a9.05,9.05,0,0,0-6.93,9,9.16,9.16,0,0,0,2.61,6.43A8.78,8.78,0,0,0,21.17,88h1.71a8.35,8.35,0,0,0,1.86,0L30,86.82"/><path class="cls-1" d="M81.29,56.39,87.58,55a8.28,8.28,0,0,1,1.85,0h1.85a8.78,8.78,0,0,1,6.3,2.67,9.16,9.16,0,0,1,2.61,6.43A9.05,9.05,0,0,1,93.13,73l-8,1.75"/><line class="cls-1" x1="67.12" y1="78.71" x2="48.04" y2="82.88"/><polyline class="cls-1" points="63.25 60.32 63.25 60.32 44.17 64.48"/></g></g></g></g></svg>