<svg xmlns="http://www.w3.org/2000/svg" viewBox="0 0 241.94 119.1"><defs><style>.cls-1{fill:#fff9f3;}</style></defs><title>Form arrow@2x</title><g id="Layer_2" data-name="Layer 2"><g id="Layer_1-2" data-name="Layer 1"><path class="cls-1" d="M0,116.07c0,.26,0,.85.1.72v-1Z" transform="translate(0 -0.4)"/><path class="cls-1" d="M.66,117.84a8.48,8.48,0,0,0-.1-2.24c0,1,0,.56,0,1.71-.07.12-.17-.3-.18-.67,0,.26-.13-.2-.13.42.15.76.31.77.38.12A3.85,3.85,0,0,1,.66,117.84Z" transform="translate(0 -0.4)"/><path class="cls-1" d="M9.07,115.46l-.12,0A.2.2,0,0,0,9.07,115.46Z" transform="translate(0 -0.4)"/><path class="cls-1" d="M13,111.4s.07.12.15.16A.31.31,0,0,0,13,111.4Z" transform="translate(0 -0.4)"/><path class="cls-1" d="M14.46,111.1l-.09,0C14.47,111.14,14.52,111.14,14.46,111.1Z" transform="translate(0 -0.4)"/><path class="cls-1" d="M9.07,115.46l.32.12C9.18,115.34,9.18,115.46,9.07,115.46Z" transform="translate(0 -0.4)"/><path class="cls-1" d="M1.32,115.33a1.16,1.16,0,0,0,0,.27.67.67,0,0,1,0-.12Z" transform="translate(0 -0.4)"/><path class="cls-1" d="M7.58,117.7l0,0,.19.36Z" transform="translate(0 -0.4)"/><path class="cls-1" d="M5.88,118.88a7.27,7.27,0,0,0-.46-1.08,1.6,1.6,0,0,1,.17.56C5.66,118.5,5.75,118.67,5.88,118.88Z" transform="translate(0 -0.4)"/><path class="cls-1" d="M2.4,118.59l0,.13S2.4,118.63,2.4,118.59Z" transform="translate(0 -0.4)"/><path class="cls-1" d="M8.85,117l.21.22Z" transform="translate(0 -0.4)"/><path class="cls-1" d="M6.36,69.75l.14,0C6.42,69.72,6.36,69.74,6.36,69.75Z" transform="translate(0 -0.4)"/><path class="cls-1" d="M9.74,66.56h.05l.45-.14Z" transform="translate(0 -0.4)"/><path class="cls-1" d="M16.28,109.92h0C16.33,110,16.32,110,16.28,109.92Z" transform="translate(0 -0.4)"/><path class="cls-1" d="M18.71,93.53c-.75.19-1-.27-1.81,0C17.23,93.51,18.22,93.76,18.71,93.53Z" transform="translate(0 -0.4)"/><path class="cls-1" d="M1.38,115.43a.06.06,0,0,1,.05,0S1.38,115.4,1.38,115.43Z" transform="translate(0 -0.4)"/><path class="cls-1" d="M16.9,93.54h0l-.08,0Z" transform="translate(0 -0.4)"/><path class="cls-1" d="M17.36,105.71l-.36-.07A2.18,2.18,0,0,0,17.36,105.71Z" transform="translate(0 -0.4)"/><path class="cls-1" d="M15.17,108.24l.13,0C15.22,108.21,15.18,108.22,15.17,108.24Z" transform="translate(0 -0.4)"/><path class="cls-1" d="M16.64,103.84c.07,0,.19,0,.09-.09h-.1C16.73,103.78,16.78,103.82,16.64,103.84Z" transform="translate(0 -0.4)"/><path class="cls-1" d="M17,102.22H16.8l0,.06Z" transform="translate(0 -0.4)"/><path class="cls-1" d="M8.06,74c.22-.1.46-.19.71-.28C8.2,73.88,7.94,73.73,8.06,74Z" transform="translate(0 -0.4)"/><path class="cls-1" d="M1.41,115.8a1.48,1.48,0,0,1,0-.36l0,.05A2.56,2.56,0,0,0,1.41,115.8Z" transform="translate(0 -0.4)"/><path class="cls-1" d="M10.18,102.23l.16-.17A.25.25,0,0,0,10.18,102.23Z" transform="translate(0 -0.4)"/><path class="cls-1" d="M10.72,84.14l-.11,0S10.62,84.14,10.72,84.14Z" transform="translate(0 -0.4)"/><path class="cls-1" d="M10.35,101.45a2.77,2.77,0,0,0,.6,0l-.21-.06Z" transform="translate(0 -0.4)"/><path class="cls-1" d="M8.78,73.69h0Z" transform="translate(0 -0.4)"/><path class="cls-1" d="M6.42,72.77c0,.22,1.07-.21,1.69-.35.38.17-.75.35-1.26.6.33.08,1.34-.09,1.34,0a2,2,0,0,1-.46.14c.9-.08.19.49,1.31.38l-.26.1c.52-.19,1.06-.35,1.45-.46,0,.09.73,0,0,.23,0-.07-.28,0-.5,0h.33c-1,.38-.39,0-1.13.18.39.1,1.28.09,1,.33-1,.31-.43-.26-1.24.19l.31-.34c-1.49.63.07-.17-1.54.47-.2.39.6.2.4.59.56-.09.8-.25,1.36-.34,1.1.16-2.37,1-1,1,.68-.1,1.93-.42,1.34,0l-1.13.23c0,.33,1.64-.28,1,.25-.45.07-.43-.13-.55-.05-.82.45.67,0,.71.12l-1,.3c.24.27,1,.43,1.32.74a2.78,2.78,0,0,0-.9.24c.61.31.14,1-.35,1.55l.89-.05a1.17,1.17,0,0,1-.54.17c-.28.25.54-.13.9-.13.08.08-.46.25-.73.25.8.11,1.77.46.93,1H10c-.29.32,1.83-.15,1.08.27h-.16c-.25.61.67,1-.54,1.71,1.26-.19-.43.64,1.3.3-.8.48-1.12.46-1.62,1-.06.13,1.12-.05,1.32.05l-.91.18h1L10.35,84l.26.08a1.66,1.66,0,0,1,.65-.23c.45.13-.53.62-1,.71l.86.34a2.34,2.34,0,0,1-.75,0c1,.09-1,.22-.06.3a4.79,4.79,0,0,1,.73-.11c-.53.22-.49.48-.23.64l-.63.07c-.1.38.43.69.48,1.09a2.87,2.87,0,0,1,1.49-.22l-1,.19c.61,0,.34-.18,1.1-.13-.09.17-1.09.26-1.41.23l.36.13c-.29.05-.44,0-.81.08.61,0-.93.45.13.4l-.29.05c0,.39.4.53.49.84a5.08,5.08,0,0,1,1.36.07c-.23.28-.86.61-.77.89.44.16.72,0,1.22,0-.76.09-.66.37-1.23.28.16.33.19.42.86.81a2.45,2.45,0,0,1,.7-.13c.13.07-.3.21-.67.23h-.08c1.21.42-2.16,1.28-.54,1.56l-.08,0,.85.37c-.12.19-.58-.09-1.05.07,1.31.39-.15.69.7,1-2.27.3.16,1-1.28,1.34h.53c.52.1-.3.11-.43.18.41,0,.48-.1.77,0,.61.83-.83,1.64-1.38,2.38-.17.27,2.74.4,1.43.67l-1-.2c1.12.71-.14,1.21.75,1.91-.22-.07-.52-.11-.5-.17-.73,0-.1.44.47.54-.08.08-.53-.06-.83,0s.86.45.14.4a.65.65,0,0,1-.28-.1c.33.14-.14.35.69.42-.43.15.3.49-.22.56.89.29-.51.26.76.56-1.33-.29-1.15.12-.55.4-.39-.14-.44,0-1-.17,0,.15.2.34.88.49-1.64-.15,1.11.9-.94.49a4.51,4.51,0,0,1,1.07,1.7c-1.27-.46,0-.48-1.33-.91.41.53,1.43,1.15,1,1.41-.21,0-.53-.26-.73-.37.37.56-.4.64.15,1.25a1.26,1.26,0,0,1-.31-.21c0,.08-.24.07.33.31l-.13-.13a9.14,9.14,0,0,1,2,1.22c-1.56-.83-.56.15-2.51-.95a2.44,2.44,0,0,0,.7.42,1.45,1.45,0,0,1-.76-.33c.2.36.83.56.71.76-.27-.13-.35-.22-.66-.39.47.35.94.72.63.78-.16-.09-.37-.18-.34-.23,0,.33,1.11,1.22.43,1.29-1.08-.72-.43-.1-1.42-.63l.2.33.51.2c-.1.14.53.69.14.63L9.48,109c0,.13,0,.26,0,.38l.46.07c.39.45,1.22.72.82.76-.07-.1-.11.15-.72-.13h0c.25.27.51.55.21.51s-1-.71-1.23-.82c.73.59,0,.48.76,1.14a6.43,6.43,0,0,0-.76-.56l.58.5a1.93,1.93,0,0,1-.73-.41c-.26.11,1.21.76.53.64a2.19,2.19,0,0,1-.2-.22c-.43,0,0,.74-.42.73-.93-.64-.08-.35-.88-.87,0,.42.56,1.45.11,1.56l.14,0c1.15,1.1-.77-.32-.34.33a3.91,3.91,0,0,0-.48-.52c-.34,0-.06.62,0,1.25l-.25-.33c-.36-.16-.42.11-.66.08.24.34.13.35.56.76-1-.71-.92-.36-.87.07s.11.9-.63.25c0,0-.12-.36-.15-.34s0,.33-.08.5a4.15,4.15,0,0,0,.65.72c.19.36.28.69.19.74a3.1,3.1,0,0,0-.89-1.21c.13.17.24.38.36.56-.84-.93.73,1.19,0,.64l-.18-.32c0,.21.18.68,0,.65-.45-.66-.1-.38-.43-1-.09.12.51,1.49,0,.85,0-.23,0-.27,0-.5-.6-.74-.49-.53-.66-.61h0L4,114.72l.17.2c.8,1.94-.15.5.2,1.86-.32-1.29-.28-.7-.64-1.53a2.36,2.36,0,0,1-.44-.66c.2.72-.38-.46-.11.58-.12-.27-.12,0-.37-.68,0,.26.22.46.35.81.13,1-.88-1-.73.44a18.07,18.07,0,0,1-.08,2.12,2.58,2.58,0,0,1-.18-1.05c-.25-.38-.33-.28-.4.08a3.32,3.32,0,0,0-.2-.77c-.09.1.13,1.06-.09.67,0-.33-.1-.85-.11-1.18a10.38,10.38,0,0,1-.19,1.13,4.45,4.45,0,0,1-.05-1.11,2.2,2.2,0,0,0-.25,1.3l.14.27a2.41,2.41,0,0,1-.1-.83c0-.64.22.26.28.55l-.07.2c.36,1.69.38-.32.57-.27l.16,1.25V117A3.06,3.06,0,0,1,2,118.2c.29.56,0-.47.33.17a.47.47,0,0,1,0,.21l.07-.4c0,.26.24.85.1.7.49.62.23-1,.59-.13v.08c.28-.52-.21-.89-.27-2q.43,1,.9,2.07L3.53,118s.15.05.26.4c-.06-.65-.16-.37-.27-1,.48.71.35-.55,1,.79-.2-.67-.38-.43-.37-.95.67,1.43.12-.33.57.24.29.76-.06.45.42,1-.47-1.29.47.1.51-.21-.48-1,.11-.57.18-1,.17.34.73.27,1.16.45L7,118c-.54-1-.22-.92-.19-1.21a3.22,3.22,0,0,1,.55,1.09l.16-.11a1.14,1.14,0,0,1-.19-.67l.43.7c.2-.17-.17-1.07.41-.83-.46-.61-1.48-1.56-1.57-2.14a5.45,5.45,0,0,1,.75,1.06c0-.06-.14-.33,0-.22l.33.63c.3.16-.3-.5-.18-.52.37.47.33.28.61.66,0,.06-.23-.13-.12.08a1.68,1.68,0,0,1,.83.5c-.22-.25-.51-.62-.48-.73s.52.5.83.64c-.22-.35.18-.13-.4-.8.05,0,.34.26.52.42-.17-.38.35-.49-.39-1.08l-.06,0s0,0,0,0h0c-.34-.91.95-.19.95-.76l.22.2c-.09-.41.2-.53-.17-1.07,0,0,.51.24.76.49,0-.28-.29-.51.25-.39.28.47.39.24.17.38.35,0,.76.24.28-.47.54.54.86.45.75.22l-.53-.2c0-.17.11-.22.23-.27l.75.66c1.29.3-1.12-1.92.74-1.07-.51-.5-.55-.05-1.16-.62.23-.1,1.55.5,1.59.43.64,0-1.06-1-.57-1.1a3.46,3.46,0,0,1-1.31-1,3.05,3.05,0,0,1,1.59.82c0,.06-.11,0-.22,0a.77.77,0,0,0,.53.42l-.29-.21c.38.1.5-.2,1,.17a.68.68,0,0,0-.69-.35c.59,0,.24-.39.68-.48-.19-.05-.58-.22-.55-.26.6-.16-.5-.49-.5-.82.56.11,1.11.66.86.19a2,2,0,0,1,1.08.6c-.47-.56.63-.26.82-.35l.19.26c-.11-.16-.08-.22,0-.29l-.68-.24a.48.48,0,0,1,.45,0,15.63,15.63,0,0,1-1.59-.89c.37.06-.21-.47.67-.1-.44.18.88.37.88.71-.08-.1,0-.17.11-.19a.48.48,0,0,1,.21.14c.92,0-.9-.6-.73-.91.47.26,1,.34.88.24-.07.13-.84-.3-1.16-.58.46,0-.19-.35-.1-.43l-.23,0c-.47-.25-.37-.32-.47-.53.39.15.21.24.4.26-.8-.51,1,0,.55-.45.38,0,.93.36,1.2.35-.54-.5.8,0,.36-.5a1.89,1.89,0,0,1-1.13-.52c.11.2.22.41.31.61l-.87-.64c-.05.13.32.43.17.46a1.66,1.66,0,0,0-.91-.41c1.08.21-.46-.56.29-.51l1.67.6c.86-.06-.66-.87-.1-1.13l-.34,0c-.65-.27,0-.28-.24-.5a4.5,4.5,0,0,0,1.16.22c-.42-.12.13-.3-1-.67l.8,0c.4-.26-1.52-.83-1.24-1.08.6.25,1,.21,1.43.55,0-.11.17-.18-.23-.28.38,0-.7-.49-.13-.46-.24-.11-.84-.26-.77-.37a1.94,1.94,0,0,1,.28.07c-.28-.07-.35-.27-1-.32,1.87.07.07-.91,1.67-.9a2,2,0,0,1-.31-.79c.17,0,.29,0,.22.08.59-.2-1.65-.45-1-.67,1,0,.49.25.86.2,1.93.24-.2-.44,1-.5l.11.07c.68-.09-.66-.52-.5-.78a2,2,0,0,0,.29,0,2.79,2.79,0,0,1-1.51-1,3.55,3.55,0,0,0,1.17.19c-.1-.13-1.24-.09-1.43-.35a7.53,7.53,0,0,1,1.63-.12l0,.23c1.08,0,0-.3.19-.4l.46.06c-.12-.37-1.29-.46-1.17-.82h-.36c-1.15-.28.66-.12-.19-.38h1.18a7.26,7.26,0,0,1-1.33-.78,7.82,7.82,0,0,1,1.82.69c0-.13-.07-.46-.65-.56.11.06.4.14.21.19-.92-.21-1.37-.44-1.34-.7,2.29.13.61-.66,2.4-.82-.85-.49.36-.95.22-1.51-1.79.22-.05-.16-1.89-.1-.12-.12-.09-.17,0-.19L18,93.13c.53-.11.41.11.82.09.14-.29.78-.14,1.26-.35-.65.06-.94-.07-.7-.24l-.83.26c-1-.36,1.52-.4.53-.77l.58.1c-.35-.19,0-.78-1.51-.89a1.89,1.89,0,0,1,.84,0c.2-.52-1.63-1-.77-1.42h.45c-.14-.08-.85-.08-.42-.24.19,0,.45,0,.47,0-.16,0-.81-.17-.56-.31l.51.05c.54-.54-1.29-.61-1.63-1a2.53,2.53,0,0,0,1.88-.78l.19,0c.09-.58-1.21-.8-1.79-1.22,1.39-.52.43-1.14,1.14-1.77a2.61,2.61,0,0,1-1.16.09c.24-.16-1-.17.24-.35l0,0c1.16-.29.8-.48.8-.67l-1.56.25c2.18-.91-1.08-1.1.9-1.76-.41,0-.44-.19-.85-.22l.83-.16c.15-.37.22-.56-.06-.91l.61,0c0-.24-2.46.23-2.55,0l1.22-.33c-.11-.38.89-1-.32-1.16a1.59,1.59,0,0,1,.61-.06c0-.19.67-.91-1-.44,1.1-.27,0-.43-.53-.51l.82-.17c-1.08.08-1.37.14-1.71,0,.09-.08.64-.21.45-.08.38-.3-.81,0-.43-.3l.54,0c0-.21-.26-.13-.89-.08-.36,0,.11-.42.84-.64-.45.09-1.08.14-.9,0a1.72,1.72,0,0,1,.54-.09c.46-.47-1.07-.24-.34-.67a2.56,2.56,0,0,0,.47-.17c.05.27.06.49,0,.48A7.1,7.1,0,0,1,16.9,76c-.61,0-1.91,0-1.61-.29l.25-.1h.09c.06-.07,0-.09-.16-.1.1-.1.18-.17.18-.23.61-.19.27-.33.27-.45-.81.23-.72.06-1.35.37.05,0,.1,0,.16.05a.19.19,0,0,0,.1,0h-.07a1.41,1.41,0,0,1,.12.25c-.44,0-.81,0-.39-.2l-1.35.21c1.1-.45,1.63-.9,2.32-1.13-.55-.19-.52-.67-2.1-.44-.22,0,.41-.23.64-.33s.16.08.39,0c-.44-.07-.31-.49-1.38-.23.42-.37,1-.15.75-.42l.34-.05c1.52-1.12-3-.2-1-1.52a1.11,1.11,0,0,1-.35.19c.73-1.06-1.37-1.31-.09-2.53.24-.31-.44-.13-1-.1l.85-.31-1.07.08c-.83-.09,2-1.21.45-1.18l-.57.23c.06-.18-.49-.35.19-.53-.11,0-.62.14-.33,0l.45-.15-.89-.11c.24-.38,1.81-.52,1.77-.95a4.24,4.24,0,0,0-1.73.14c0,.07-.23.24-.69.39l-.28-.06a12.2,12.2,0,0,0-3.56,1.34l.89,0-.62.28L6.39,68c-.57.3,0,.2.38.17a3.07,3.07,0,0,0-.68.32l1.34-.17c-.51.19-1.07.22-1.31.46.62-.08,1.14-.47,1.58-.41-.57.3-1.08.42-.52.39a2,2,0,0,1-.73.16c.45,0,.27.25,1,.09-.71.35.32.33-.95.71a3,3,0,0,1,1.14,0c-1.57.27,0,.42-1.6.87,1.4-.28.76.33,1.6.35-.11,0-.34.06-.28,0-.07.18-.47.34-.7.51a8.66,8.66,0,0,1,2.19-.27,16.13,16.13,0,0,1-2.38.67c.91-.29,1,0,1.74-.26a5.37,5.37,0,0,1-1.2.57c1.41-.4.28.05,1.17-.1-.64.4-1.3.45-.81.53A2,2,0,0,1,6.42,72.77Zm3.88,4.34h0L10.21,77Zm.13.42a.31.31,0,0,0,0-.19c.28-.09.57-.15.57-.1C10.78,77.26,10.65,77.41,10.43,77.53Zm5.4-2.43c.13,0,0,.11-.18.16a.38.38,0,0,0-.13-.1l-.1,0Z" transform="translate(0 -0.4)"/><path class="cls-1" d="M14.72,75.26h-.07l-.17.09.26,0Z" transform="translate(0 -0.4)"/><path class="cls-1" d="M8.93,115.41H9l-.1-.07Z" transform="translate(0 -0.4)"/><polygon class="cls-1" points="10.22 83.34 10.43 83.3 10.24 83.3 10.22 83.34"/><path class="cls-1" d="M5.24,114.65a1.23,1.23,0,0,0-.14-.16Z" transform="translate(0 -0.4)"/><path class="cls-1" d="M4.35,115l-.26-.21A1.19,1.19,0,0,0,4.35,115Z" transform="translate(0 -0.4)"/><path class="cls-1" d="M3.54,114.91l.14.33h0Z" transform="translate(0 -0.4)"/><path class="cls-1" d="M10,106.08a.07.07,0,0,0,0,0C9.8,105.91,9.85,106,10,106.08Z" transform="translate(0 -0.4)"/><path class="cls-1" d="M10.05,110.1a3.42,3.42,0,0,1-.27-.31C9.69,109.81,9.65,109.85,10.05,110.1Z" transform="translate(0 -0.4)"/><path class="cls-1" d="M10.16,102.25h0s0,0,0,0Z" transform="translate(0 -0.4)"/><path class="cls-1" d="M9.88,109.66c-.18,0-.18,0-.1.13S10,109.77,9.88,109.66Z" transform="translate(0 -0.4)"/><path class="cls-1" d="M.75,115.34l0,0v.13Z" transform="translate(0 -0.4)"/><path class="cls-1" d="M.73,115.45l0,.1S.73,115.54.73,115.45Z" transform="translate(0 -0.4)"/><path class="cls-1" d="M.66,115.77l0-.22S.65,115.53.66,115.77Z" transform="translate(0 -0.4)"/><path class="cls-1" d="M1.66,115.57l-.06-.3Z" transform="translate(0 -0.4)"/><path class="cls-1" d="M1.89,115.42c-.08-.05-.31-.6-.34-.39l0,.24C1.53,114.82,2,115.94,1.89,115.42Z" transform="translate(0 -0.4)"/><path class="cls-1" d="M4.33,118.6,4,118.48c.16.29.39.67.27.8C5,120,3.9,118.62,4.33,118.6Z" transform="translate(0 -0.4)"/><path class="cls-1" d="M5.41,118.64c-.09.21.2.43.28.6A.64.64,0,0,0,5.41,118.64Z" transform="translate(0 -0.4)"/><path class="cls-1" d="M10.88,114.35l.57.51C11.45,114.69,11.22,114.67,10.88,114.35Z" transform="translate(0 -0.4)"/><polygon class="cls-1" points="8.53 110.54 8.1 110.33 8.63 110.79 8.53 110.54"/><polygon class="cls-1" points="13.38 113.18 13.44 113.29 13.34 112.95 13.38 113.18"/><path class="cls-1" d="M17.65,102.65l-.94-.14C16.86,102.62,17.9,102.84,17.65,102.65Z" transform="translate(0 -0.4)"/><path class="cls-1" d="M17.31,97.76c.48,0,.79-.13.33-.25C17.57,97.61,17.2,97.69,17.31,97.76Z" transform="translate(0 -0.4)"/><polygon class="cls-1" points="17.9 83.09 18.22 83.13 17.93 83 17.9 83.09"/><path class="cls-1" d="M68.31,61.84c-.22-.14-.75-.38-.69-.25l.86.5Z" transform="translate(0 -0.4)"/><path class="cls-1" d="M66.37,61.57a8.11,8.11,0,0,0,1.9,1.19c-.79-.55-.42-.39-1.38-1-.06-.13.36,0,.68.18-.21-.14.27,0-.27-.36-.75-.23-.84-.12-.35.31A3.48,3.48,0,0,1,66.37,61.57Z" transform="translate(0 -0.4)"/><path class="cls-1" d="M59.87,67.21l.12.05A.21.21,0,0,0,59.87,67.21Z" transform="translate(0 -0.4)"/><path class="cls-1" d="M55.37,69.64s0-.13-.05-.21A.35.35,0,0,0,55.37,69.64Z" transform="translate(0 -0.4)"/><path class="cls-1" d="M54.1,69.07l.08,0C54.12,69,54.08,69,54.1,69.07Z" transform="translate(0 -0.4)"/><path class="cls-1" d="M59.87,67.21l-.3-.15C59.77,67.32,59.78,67.2,59.87,67.21Z" transform="translate(0 -0.4)"/><path class="cls-1" d="M67.85,63.87a.81.81,0,0,0-.18-.21.59.59,0,0,1,.05.13Z" transform="translate(0 -0.4)"/><path class="cls-1" d="M60.93,65.11l0,0-.27-.3Z" transform="translate(0 -0.4)"/><path class="cls-1" d="M61.92,63.77a9.93,9.93,0,0,0,.86.8,2,2,0,0,1-.39-.43Z" transform="translate(0 -0.4)"/><path class="cls-1" d="M64.7,62.45l-.07-.1Z" transform="translate(0 -0.4)"/><path class="cls-1" d="M60,65.81l-.22-.21Z" transform="translate(0 -0.4)"/><path class="cls-1" d="M11.63,73.58l0-.14C11.64,73.52,11.61,73.57,11.63,73.58Z" transform="translate(0 -0.4)"/><path class="cls-1" d="M10.95,68.94l0,0,.16-.45Z" transform="translate(0 -0.4)"/><path class="cls-1" d="M52.29,68.75h0C52.3,68.66,52.28,68.68,52.29,68.75Z" transform="translate(0 -0.4)"/><path class="cls-1" d="M38.86,72c.16.76-.29,1,0,1.8A5.85,5.85,0,0,0,38.86,72Z" transform="translate(0 -0.4)"/><path class="cls-1" d="M67.73,63.86a.12.12,0,0,1,0,.08S67.75,63.89,67.73,63.86Z" transform="translate(0 -0.4)"/><path class="cls-1" d="M38.82,73.79h0l0,.08Z" transform="translate(0 -0.4)"/><path class="cls-1" d="M49.24,70.43c.05.14.1.24.14.34A2.74,2.74,0,0,0,49.24,70.43Z" transform="translate(0 -0.4)"/><path class="cls-1" d="M52.13,70.66l-.1-.08C52.08,70.64,52.11,70.66,52.13,70.66Z" transform="translate(0 -0.4)"/><path class="cls-1" d="M48.24,72c-.05-.05-.09-.16-.11,0l0,.09C48.16,71.9,48.17,71.84,48.24,72Z" transform="translate(0 -0.4)"/><path class="cls-1" d="M46.81,72.3l.06.16,0-.05Z" transform="translate(0 -0.4)"/><path class="cls-1" d="M16.35,74.71c0-.24.1-.49.16-.74C16.35,74.54,16.06,74.67,16.35,74.71Z" transform="translate(0 -0.4)"/><path class="cls-1" d="M67.44,63.63a1,1,0,0,1,.29.23.24.24,0,0,0,0-.07A1.81,1.81,0,0,0,67.44,63.63Z" transform="translate(0 -0.4)"/><path class="cls-1" d="M49.87,78.41l-.3,0A.36.36,0,0,0,49.87,78.41Z" transform="translate(0 -0.4)"/><path class="cls-1" d="M27.62,77.62l-.08.09S27.59,77.71,27.62,77.62Z" transform="translate(0 -0.4)"/><path class="cls-1" d="M48.79,78.67a2.29,2.29,0,0,0-.28-.53,1.94,1.94,0,0,0,0,.22Z" transform="translate(0 -0.4)"/><path class="cls-1" d="M16.51,74h0Z" transform="translate(0 -0.4)"/><path class="cls-1" d="M14.31,75.35c.22.1.44-1,.69-1.58.37-.21-.13.82-.21,1.39.26-.22.71-1.15.82-1.07a1.84,1.84,0,0,1-.14.46c.45-.78.55.13,1.1-.86a2.36,2.36,0,0,1-.06.27c.13-.54.3-1.08.43-1.46.11,0,.4-.61.22.1-.06,0-.15.24-.25.44l.2-.27c-.22,1-.26.3-.49,1,.31-.26.82-1,.89-.67-.27,1-.48.21-.54,1.14l-.13-.45c-.29,1.59-.12-.16-.46,1.54.24.39.53-.38.77,0,.24-.52.23-.81.47-1.32.77-.83-.39,2.56.36,1.37.29-.62.7-1.84.75-1.12l-.42,1.08c.29.21.66-1.53.78-.68-.19.42-.36.29-.35.43,0,.94.34-.58.51-.53l-.26,1c.39-.05,1-.65,1.41-.72a2.55,2.55,0,0,0-.26.9c.62-.35,1,.42,1.31,1.13l.41-.8a1.06,1.06,0,0,1-.12.56c.1.37.16-.54.34-.85.12,0,0,.53-.13.76.52-.63,1.33-1.3,1.44-.3l-.13.24c.18.41.75-1.67.79-.81l-.09.14c.49.52,1.31-.1,1.45,1.29.37-1.22.46.68.89-1,.14.93,0,1.22.32,1.9.11.11.42-1,.62-1.19l-.19.9.41-.91-.11,1.11.2-.2a1.47,1.47,0,0,1,0-.69c.31-.36.43.74.35,1.21l.7-.66a2,2,0,0,1-.32.69c.47-.87-.13,1,.3.17a4.16,4.16,0,0,1,.16-.72c0,.58.34.63.61.44l-.16.62c.39.23.93-.15,1.39-.06a2.53,2.53,0,0,1,.25-1.49l-.1,1c.18-.58-.08-.39.21-1.09.15.14-.06,1.12-.21,1.42l.26-.3c0,.29-.11.44-.18.8.18-.59.22,1,.51,0l0,.29c.47.08.73-.23,1.12-.22.12-.84.24-.63.44-1.29.24.3.48,1,.82,1,.28-.39.15-.7.31-1.19-.06.77.28.73,0,1.26.42-.08.54-.09,1.1-.67a2.11,2.11,0,0,1,0-.72c.1-.12.18.34.14.7l0,.08c.65-1.11,1.19,2.33,1.75.76l0,.08.52-.82c.22.14-.16.57,0,1.05.56-1.27.82.21,1.27-.63.31,2.28,1.18-.17,1.65,1.28l0-.53c.11-.52.15.3.24.42,0-.41-.14-.48-.07-.77,1-.66,2.1.69,3.21,1.07.4.1-.07-2.77.53-1.56l0,1c.62-1.26,1.58-.15,2.15-1.28,0,.23,0,.53,0,.53.28.68.59-.07.48-.64.13,0,.12.52.25.8s.22-1,.44-.28a.51.51,0,0,1,0,.3c0-.36.49,0,.23-.81.36.33.44-.48.77,0-.07-.94.57.33.31-1,.3,1.32.74,1,.75.29,0,.41.26.37.33.94.19-.07.31-.37.09-1,.8,1.46.35-1.46,1.14.48a8.56,8.56,0,0,1,1.13-2c.43,1.28-.51.32,0,1.66.32-.7.2-1.89.78-1.75.19.13.14.57.17.81.29-.68,1-.25,1.11-1.1a1,1,0,0,1,.05.38c.07-.07.27.1,0-.46l0,.19a9.21,9.21,0,0,1-.58-2.29c.56,1.68.57.24,1.24,2.38a1.86,1.86,0,0,0-.22-.8c.13.08.25.28.36.75.16-.43-.21-1,.05-1.08.12.27.12.4.24.73-.1-.59-.22-1.18.1-1.06.06.17.19.37.12.4.34-.27,0-1.7.6-1.39.47,1.21.33.31.87,1.29l.07-.41-.34-.44c.2-.07,0-.89.31-.66l.08.48.24-.38-.4-.26c-.1-.61-.7-1.23-.32-1.09,0,.13.18-.09.6.43h0c-.09-.36-.19-.74.08-.57s.6,1.08.75,1.27c-.39-.86.3-.47-.11-1.39a5.58,5.58,0,0,0,.47.82l-.33-.69a1.66,1.66,0,0,1,.52.65c.32,0-.83-1.15-.22-.82a1.82,1.82,0,0,1,.1.28c.46.07.29-.78.76-.64.71.88-.08.39.54,1.11.29-.44,0-1.64.54-1.71l-.14,0c-.91-1.31.73.43.46-.31a3.28,3.28,0,0,0,.39.59c.4,0,.27-.7.31-1.37l.22.35c.38.17.5-.16.77-.15-.22-.35-.1-.37-.54-.77,1,.67,1,.23,1-.22s-.14-.91.73-.43c0,.05.15.37.18.33l.05-.6a3.94,3.94,0,0,0-.79-.56c-.25-.33-.4-.64-.33-.72.2.46.8.77,1.15,1-.16-.14-.31-.32-.48-.46,1.06.67-1-1-.17-.64l.26.26c-.06-.21-.34-.61-.18-.63.63.5.19.34.68.79.09-.17-.89-1.26-.19-.86.12.21,0,.28.16.49.83.49.67.32.87.31h0l.52,0-.25-.1c-1.46-1.52,0-.62-.88-1.71.83,1,.56.51,1.25,1.09a2,2,0,0,1,.73.36c-.48-.57.62.15-.1-.67.24.17.12-.11.69.36-.06-.3-.44-.27-.72-.5-.61-.81,1.4.11.52-1-.26-.63-1.05-1.22-1.29-1.74a2.31,2.31,0,0,1,.85.64c.46.08.48-.08.28-.4a2.53,2.53,0,0,0,.71.36c0-.16-.87-.63-.41-.57a11.54,11.54,0,0,1,.95.72c-.15-.29-.54-.71-.69-1a3.05,3.05,0,0,1,.88.69A1.69,1.69,0,0,0,67,62.26l-.31,0c0-.08.63.3.73.42.47.45-.36.08-.62-.06l-.11-.2c-1.55-.73,0,.54-.19.72l-1-.72.77.74a2.92,2.92,0,0,1-1-.65c-.62-.19.3.35-.36.11a.5.5,0,0,1-.18-.12l.23.33c-.2-.17-.76-.45-.55-.43-.75-.17.54.88-.31.45L64,62.73c.14.55.74.54,1.47,1.39l-2-1.12.73.56s-.15,0-.44-.18c.43.49.34.21.77.63-.77-.32,0,.67-1.21-.17.51.47.54.18.8.63-1.28-.91.06.35-.62.05-.6-.54-.17-.4-.84-.72,1,.93-.44.07-.32.34.84.7.16.53.28,1-.27-.25-.77-.06-1.21-.17l-.13-.13c.78.78.47.81.51,1.09a4.11,4.11,0,0,1-.79-.93l-.1.11a1.24,1.24,0,0,1,.35.6l-.56-.6c-.11.17.41,1-.18.78.52.57,1.66,1.39,1.78,2a5.5,5.5,0,0,1-.85-1c0,.06.17.31,0,.22l-.39-.59c-.3-.14.35.47.23.49-.41-.43-.35-.26-.66-.61,0-.06.23.12.1-.07a1.7,1.7,0,0,1-.83-.47c.24.24.54.58.53.7s-.53-.48-.83-.62c.24.34-.14.11.44.77,0,0-.33-.26-.51-.43.18.36-.29.42.41,1.05l.06,0v0h0c.29.93-.91.08-.95.6L59,67.71c0,.4-.25.45,0,1.06-.05,0-.44-.34-.63-.64,0,.28.18.56-.3.29-.16-.51-.31-.34-.08-.4-.32-.09-.63-.46-.35.33-.37-.67-.67-.7-.62-.46l.42.37c0,.15-.15.15-.27.15l-.51-.86c-1-.81.5,2.18-.86.6.27.65.45.31.79,1.05-.25,0-1.15-1.14-1.2-1.12-.5-.35.52,1.38.09,1.19a3.56,3.56,0,0,1,.68,1.5c-.25,0-.94-1.18-1-1.5,0,0,.1,0,.16.14A.88.88,0,0,0,55,68.8l.15.32c-.26-.27-.47-.11-.69-.65a.79.79,0,0,0,.41.65c-.45-.33-.34.17-.73,0,.13.16.35.51.31.53-.54-.23.16.67,0,.93-.37-.42-.53-1.18-.56-.66a2.39,2.39,0,0,1-.52-1.12c.1.72-.57-.22-.73-.28l0-.31c0,.18,0,.21-.09.23l.36.62a.53.53,0,0,1-.29-.33,16.4,16.4,0,0,1,.68,1.7c-.24-.29-.12.47-.53-.38.41.18-.42-.85-.25-1.09,0,.12-.05.14-.17.05a.6.6,0,0,1-.08-.24c-.59-.67.32,1,0,1.12-.18-.5-.46-.9-.46-.78.11,0,.4.8.46,1.21-.34-.31-.07.37-.19.36l.18.14c.17.51,0,.48,0,.69-.17-.38,0-.31-.11-.46.21.93-.67-.77-.63-.1-.22-.3-.37-.93-.53-1.13,0,.72-.49-.6-.51,0A2.16,2.16,0,0,1,50.85,71l.21-.6.12,1.06c.12,0,.09-.51.2-.42a1.83,1.83,0,0,0,.3,1c-.54-.95-.11.7-.55.09l-.59-1.67c-.53-.65-.18,1-.68.73l.21.25c.17.68-.19.17-.22.48a5.61,5.61,0,0,0-.47-1.09c.14.42-.27,0,0,1.18l-.39-.7c-.38-.22.13,1.72-.22,1.61a6.42,6.42,0,0,1-.26-1.51c-.09,0-.21-.06-.1.34-.15-.34-.06.85-.29.33,0,.26.17.87,0,.85a2.06,2.06,0,0,1-.07-.28,2.78,2.78,0,0,0,.18,1c-.75-1.72-.84.33-1.45-1.16a1.7,1.7,0,0,1-.57.57c0-.18-.06-.29,0-.24-.37-.5.16,1.7-.28,1.15-.33-.91.07-.54-.09-.88-.39-1.91-.32.32-.72-.76l0-.12c-.26-.63-.26.79-.54.7a2.25,2.25,0,0,0,0-.29,2.46,2.46,0,0,1-.55,1.68A3.59,3.59,0,0,0,44,73.1c-.1.12.19,1.23,0,1.47A6.87,6.87,0,0,1,43.56,73l.2-.07c-.23-1.05-.26.07-.4-.1l0-.47c-.3.19-.18,1.36-.54,1.32l.07.35c-.09,1.18-.22-.64-.34.24l-.15-1.18a5.75,5.75,0,0,1-.58,1.41,10.32,10.32,0,0,1,.43-1.88c-.12,0-.41.11-.44.7,0-.12.09-.41.15-.23-.09.94-.27,1.41-.53,1.4-.06-2.29-.68-.53-.92-2.33-.42.85-.86-.35-1.36-.21.17,1.78-.15.05-.13,1.88-.12.11-.17.08-.18,0l-.34-1.11c-.07-.54.12-.4.12-.81-.25-.15-.09-.78-.24-1.27,0,.66-.11.94-.25.68l.18.85c-.39,1-.26-1.55-.65-.59l.14-.57c-.2.34-.66,0-.93,1.42a2.08,2.08,0,0,1,.06-.84c-.42-.25-1.1,1.49-1.38.57l.07-.44c-.09.12-.22.83-.28.37a1.55,1.55,0,0,0,0-.47c-.06.15-.29.76-.38.49l.14-.49c-.37-.63-.79,1.15-1.2,1.42a2.8,2.8,0,0,0-.28-2l0-.18c-.47-.23-1,1-1.55,1.41-.07-1.45-.9-.76-1.23-1.63a2.75,2.75,0,0,1-.3,1.13c-.06-.28-.47.85-.24-.34l0,0c.13-1.18-.15-.91-.32-1L29.73,72c0-2.35-1.39.58-1.22-1.49-.19.37-.33.33-.53.69l.19-.83c-.26-.28-.39-.42-.81-.31l.21-.57c-.2-.1-.82,2.32-1,2.33l.23-1.25c-.38-.06-.49-1.25-1.14-.22.05-.18.15-.53.22-.57-.17-.08-.46-1-.84.7.28-1.1-.36-.2-.69.22l.25-.8c-.45,1-.53,1.27-.85,1.49,0-.12.12-.66.14-.43-.08-.48-.36.72-.47.23l.23-.49c-.18-.12-.24.16-.51.74-.21.29-.32-.31-.14-1-.15.44-.42,1-.48.76a1.7,1.7,0,0,1,.2-.52c-.17-.64-.75.79-.75-.06A2.59,2.59,0,0,0,22,70c.25.1.45.2.41.25a7.16,7.16,0,0,1,.5-1.91c-.32.51-1,1.64-1.06,1.23,0-.07,0-.15,0-.26l0-.08c0-.09-.09,0-.16.08,0-.14,0-.24-.1-.27.16-.62-.14-.4-.24-.46-.23.81-.33.64-.4,1.35,0-.06,0-.09.13-.1a.19.19,0,0,0,.07-.07l0,.07.28,0c-.2.39-.39.71-.38.22l-.53,1.26c.19-1.17.1-1.86.27-2.57-.45.36-.84.07-1.51,1.52-.15.17,0-.47.07-.71s.15-.09.25-.3c-.3.33-.58,0-1,1-.08-.55.43-.93.06-.86l.14-.31c-.08-1.88-1.87,2.37-1.86,0a1.09,1.09,0,0,1,0,.4c-.47-1.21-1.91.36-2.19-1.4-.12-.38-.37.29-.67.75l.24-.88-.56.91c-.57.62.15-2.3-.73-1.06l-.14.6c-.11-.16-.59.18-.34-.47-.05.1-.25.58-.21.26l.15-.45-.62.65c-.17-.42.65-1.77.27-2a4.15,4.15,0,0,0-.92,1.48c.05,0,.06.33-.08.78l-.22.19a11.64,11.64,0,0,0-1,3.67l.52-.73-.14.67-.22,0c-.09.64.16.13.37-.21a2.93,2.93,0,0,0-.14.74L11,71.85c-.15.53-.45,1-.39,1.33.31-.55.29-1.2.6-1.52-.09.64-.29,1.12,0,.65A1.93,1.93,0,0,1,11,73c.26-.37.38-.06.68-.75-.13.78.47-.06,0,1.19.14-.29.54-.91.67-.93-.71,1.43.39.23-.21,1.82.6-1.3.74-.42,1.26-1.08-.05.1-.15.31-.15.23.11.16,0,.58,0,.87a8.39,8.39,0,0,1,1.06-1.93c-.17,1.14-.55,1.27-.83,2.33.29-.91.62-.8.81-1.57a5.15,5.15,0,0,1-.22,1.31c.48-1.39.21-.19.61-1,0,.76-.38,1.33,0,1A1.82,1.82,0,0,1,14.31,75.35Zm6.17-.74v0h-.13Zm.46.12a.36.36,0,0,0-.19-.09c.06-.28.17-.57.21-.54A1.63,1.63,0,0,0,20.94,74.72Zm.69-5.89c.1-.09.08.07,0,.24a.38.38,0,0,0-.15.06l0,.1C21.53,69.08,21.58,68.94,21.62,68.84Z" transform="translate(0 -0.4)"/><path class="cls-1" d="M21.19,69.86s0,0,0,.05v.19l.1-.25Z" transform="translate(0 -0.4)"/><path class="cls-1" d="M60,67.28h0l.09.08Z" transform="translate(0 -0.4)"/><polygon class="cls-1" points="27 77.51 27.05 77.31 26.97 77.48 27 77.51"/><path class="cls-1" d="M63.87,67.58a.93.93,0,0,0,.18.12Z" transform="translate(0 -0.4)"/><path class="cls-1" d="M64.82,66.83l.34.06A1.09,1.09,0,0,0,64.82,66.83Z" transform="translate(0 -0.4)"/><path class="cls-1" d="M65.73,66.37l-.27-.24h0Z" transform="translate(0 -0.4)"/><path class="cls-1" d="M54.33,75.86a.07.07,0,0,0,0,0C54.29,76.09,54.32,76,54.33,75.86Z" transform="translate(0 -0.4)"/><path class="cls-1" d="M57.36,72.19a2.7,2.7,0,0,1,.08.41C57.53,72.62,57.59,72.61,57.36,72.19Z" transform="translate(0 -0.4)"/><path class="cls-1" d="M49.9,78.42h0Z" transform="translate(0 -0.4)"/><path class="cls-1" d="M57.26,72.69c.15.11.19,0,.18-.09S57.25,72.55,57.26,72.69Z" transform="translate(0 -0.4)"/><path class="cls-1" d="M68.33,63.16l.05,0-.12-.07Z" transform="translate(0 -0.4)"/><path class="cls-1" d="M68.26,63.06,68.2,63S68.18,63,68.26,63.06Z" transform="translate(0 -0.4)"/><path class="cls-1" d="M68.06,62.78l.14.19S68.26,62.91,68.06,62.78Z" transform="translate(0 -0.4)"/><path class="cls-1" d="M67.36,64.05l.25.17Z" transform="translate(0 -0.4)"/><path class="cls-1" d="M67.23,64.42c.11,0,.68.16.59-.05l-.2-.14C68,64.52,66.84,64.07,67.23,64.42Z" transform="translate(0 -0.4)"/><path class="cls-1" d="M63.3,63.49l.36-.07c-.29-.15-.68-.36-.68-.5C62,62.61,63.62,63.29,63.3,63.49Z" transform="translate(0 -0.4)"/><path class="cls-1" d="M62.41,63.84c0-.2-.37-.29-.51-.42A.79.79,0,0,0,62.41,63.84Z" transform="translate(0 -0.4)"/><path class="cls-1" d="M58.11,67.92l-.44-.63C57.65,67.44,57.84,67.53,58.11,67.92Z" transform="translate(0 -0.4)"/><polygon class="cls-1" points="59.34 71.47 59.71 71.8 59.37 71.18 59.34 71.47"/><polygon class="cls-1" points="55.8 67.26 55.78 67.14 55.78 67.47 55.8 67.26"/><path class="cls-1" d="M46.9,71.51l.24.91C47.18,72.25,47,71.21,46.9,71.51Z" transform="translate(0 -0.4)"/><path class="cls-1" d="M42.78,73.15c-.09-.46-.24-.76-.27-.29C42.61,72.92,42.74,73.28,42.78,73.15Z" transform="translate(0 -0.4)"/><polygon class="cls-1" points="29.73 70.33 29.88 70.04 29.67 70.27 29.73 70.33"/><path class="cls-1" d="M241.81.53c-.23-.19-.82-.19-.79.24l.92.45Z" transform="translate(0 -0.4)"/><path class="cls-1" d="M239.46,3a2.2,2.2,0,0,0,2.06,1.13c-.85-.66-.43-.71-1.45-1.42a.58.58,0,0,1,.8-.54c-.22-.19.34-.61-.23-.94a1.19,1.19,0,0,0-.53,1.91C239.86,3.28,239.63,3.09,239.46,3Z" transform="translate(0 -0.4)"/><path class="cls-1" d="M224.72,40.89l.22-.18A.49.49,0,0,0,224.72,40.89Z" transform="translate(0 -0.4)"/><path class="cls-1" d="M210.48,61.49c.1-.16.07-.29,0-.35C210.43,61.32,210.39,61.47,210.48,61.49Z" transform="translate(0 -0.4)"/><path class="cls-1" d="M207,64.1l.22-.14C207,64,206.94,64,207,64.1Z" transform="translate(0 -0.4)"/><path class="cls-1" d="M224.72,40.89l-.58.45C224.41,41.53,224.51,41.14,224.72,40.89Z" transform="translate(0 -0.4)"/><path class="cls-1" d="M240.74,9.1a.92.92,0,0,0-.19-.43,2.87,2.87,0,0,1,0,.37Z" transform="translate(0 -0.4)"/><path class="cls-1" d="M228.75,30.58l.08-.19a2.87,2.87,0,0,0-.31-.31Z" transform="translate(0 -0.4)"/><path class="cls-1" d="M231.69,22.67c-.1.17.68.51,1,.71-.29-.22-.4-.41-.41-.59A2.21,2.21,0,0,0,231.69,22.67Z" transform="translate(0 -0.4)"/><path class="cls-1" d="M237,10.21l-.05-.26C236.92,10,236.93,10.13,237,10.21Z" transform="translate(0 -0.4)"/><path class="cls-1" d="M226.08,36a1,1,0,0,0-.31-.06A.69.69,0,0,0,226.08,36Z" transform="translate(0 -0.4)"/><path class="cls-1" d="M22.08,86.42s.06-.08.09-.12S22,86.37,22.08,86.42Z" transform="translate(0 -0.4)"/><path class="cls-1" d="M17.19,76.65l.13.06c.12-.11.24-.21.35-.32Z" transform="translate(0 -0.4)"/><path class="cls-1" d="M201,69.14h0C201.12,68.92,201,69,201,69.14Z" transform="translate(0 -0.4)"/><path class="cls-1" d="M141.35,105.38c1,.55-1,1.23.35,1.77C141.52,106.85,142.46,105.63,141.35,105.38Z" transform="translate(0 -0.4)"/><path class="cls-1" d="M240.59,9.3a2.23,2.23,0,0,1-.06.35A.67.67,0,0,0,240.59,9.3Z" transform="translate(0 -0.4)"/><path class="cls-1" d="M141.71,107.15h0l.14,0Z" transform="translate(0 -0.4)"/><path class="cls-1" d="M188.27,81.52a1.14,1.14,0,0,0,.38.18A.75.75,0,0,0,188.27,81.52Z" transform="translate(0 -0.4)"/><path class="cls-1" d="M199,73.53l-.31.15A.78.78,0,0,0,199,73.53Z" transform="translate(0 -0.4)"/><path class="cls-1" d="M183.48,86.63c-.18.06-.3,0-.43.24l.12,0C183.17,86.76,183.23,86.65,183.48,86.63Z" transform="translate(0 -0.4)"/><path class="cls-1" d="M177.49,90.67a1.6,1.6,0,0,0,.2.07l.17-.16Z" transform="translate(0 -0.4)"/><path class="cls-1" d="M41.42,98.83a2.68,2.68,0,0,1,.06-.83C41.29,98.58,40.22,98.22,41.42,98.83Z" transform="translate(0 -0.4)"/><path class="cls-1" d="M240.28,9c.2.09.29.18.31.3a2.16,2.16,0,0,0,0-.26A.44.44,0,0,0,240.28,9Z" transform="translate(0 -0.4)"/><path class="cls-1" d="M187.12,92.21l-1,.62A5.3,5.3,0,0,0,187.12,92.21Z" transform="translate(0 -0.4)"/><path class="cls-1" d="M92.65,115.19l-.29.07A.26.26,0,0,0,92.65,115.19Z" transform="translate(0 -0.4)"/><path class="cls-1" d="M183.17,94.91a1.79,1.79,0,0,0-.89-.11.73.73,0,0,0,0,.26Z" transform="translate(0 -0.4)"/><path class="cls-1" d="M41.48,98h0Z" transform="translate(0 -0.4)"/><path class="cls-1" d="M33.65,95.67c1,.65,1-.62,1.57-1,1.31.48.1,1,.19,1.77.87.24,2-.32,2.49,0-.05.18,0,.3-.22.42,1.23-.32,2.36,1.27,3.81.82a.69.69,0,0,1,0,.31,4.19,4.19,0,0,1,.6-1.41c.45.23,1.15-.16,1,.57-.26-.17-.42.07-.66.2l.61,0c-.08,1.15-.8,0-1.18.64,1.07.21,2.53,0,3.08.69-.33,1-1.78-.6-1.28.72l-.89-.95c.06,1.87-.6-.47-.66,1.47,1.31,1,1.83.47,3.15,1.46.59-.35.27-.8.86-1.15,2.52.07.51,3.08,2.65,2.59.69-.42,1.39-1.52,2.19-.39l-.85.87c1.39.78,1.5-1.12,2.67.29-.45.29-1.27-.18-1.11,0,.6,1.29,1-.27,1.69.08l-.25,1c1.63.49,3.63.48,5.42,1-.2.25-.62.43-.33.88a10.64,10.64,0,0,1,3.43,1.3,36.78,36.78,0,0,1,3.18,1.86l1.1-.57a.34.34,0,0,1,0,.59c.74.59.22-.52.72-.72a.44.44,0,0,1,.09.84c1.72-.24,4.66-.15,6,1.1l-.38.17c1.15.66,1.86-1.39,2.79-.31l-.26.1A32.91,32.91,0,0,0,78.88,112c.66.19,1.3.35,1.9.57a4.88,4.88,0,0,1,1.58.95c.63-1.17,2.6,1.05,3.08-.66,1.4,1.15.9,1.38,3,2.36.58.18,1-1,1.8-1.07l-.11.92,1.12-.84.39,1.16.72-.16a.73.73,0,0,1-.45-.74,2.44,2.44,0,0,1,2.51,1.42l2.62-.48c-.09.36-.53.44-.89.64,1.44-.78.16,1,1.48.28-.15-.23.14-.54.18-.72.57.61,2,.67,3.06.49l-.24.63c1.9.26,4-.1,6.15,0a.8.8,0,0,1,.07-1.51l.23,1c.41-.59-.64-.4.19-1.1.79.1.52,1.1.05,1.43l1-.35c.05.29-.17.45-.24.82.4-.61,1.68,1,2.25-.11l.06.29c2.14,0,3.11-.38,4.84-.45,0-.84.69-.67,1.17-1.36a15.58,15.58,0,0,0,4.25.51c1-.51.26-.74.69-1.28.14.76,1.66.56.92,1.18.91-.14,1.5-.23,2.13-.38a12.28,12.28,0,0,0,2.43-.87c-.29-.27-.58-.37-.47-.65a.73.73,0,0,1,1,.55l-.1.1c1.21-.77,2.76-.44,4.27-.16s3,.54,3.84-.47l-.1.1,1.94-1.29c1-.09-.46.7.35,1,2-1.77,3.65-.63,5.32-1.89,1,1,2.28.52,3.57,0s2.61-1.19,3.79-.8l-.27-.48c.34-.65.7.11,1.1.11-.18-.38-.69-.29-.47-.66A35.24,35.24,0,0,1,157,108a54.82,54.82,0,0,0,6.76-1.63c1.57-.58-.29-2.91,2.12-2.64l-.11,1.15a14.44,14.44,0,0,1,4.34-2.67,15.62,15.62,0,0,0,4.17-2.81c-.06.29.08.56-.2.71,1,.29,2.25-1.22,2-1.73.48-.19.37.4.8.5.82,0,1.05-1.62,1.72-1.23.11.07,0,.31-.12.42.2-.54,1.81-1.07,1-1.54,1.24-.33,1.75-1.59,2.84-1.71,0-1.12,2-.77,1.43-2,.69,1.16,2.43-.25,2.65-1.27,0,.49.78-.06.87.59.7-.55,1.19-1.24.66-1.71,2.27.32,1.8-3,3.8-1.9q.62-.81,1.23-1.56l1.15-1.53c.76-1,1.53-1.92,2.31-2.81.82,1.08-1.87,1.79-.88,2.81,1.34-1.89,1.53-3.6,3.41-4.79.56-.24.15.65.16.94a19.41,19.41,0,0,1,2.2-2.38,8.3,8.3,0,0,0,1.91-2.4c.08.09,0,.34,0,.56.25-.3.79-.5.32-.9l-.15.38c-1.07-.2-.22-2.4-.51-2.77.79,1.7,1.69-1,2.54,1.24a.79.79,0,0,0-.22-.93c.36-.18.62-.1.68.49.75-1.21-.07-1.31.78-2.24.21.21.13.48.3.81a2.49,2.49,0,0,1,.89-2.37c.09.17.35.23.13.47,1.16-1.43.91-3.35,2.66-4.46.59,1.28.78-.23,1.7.41.16-.34.3-.69.43-1H212c.6-.73.47-1.9,1.26-2.31l-.07.84.92-1.52-.95.52c.13-1.11-1.17-.8-.16-1.59-.06.27.58-.72,1.41-.71h0c0-.58,0-1.18.64-1.56.4.07.9.86,1.16.91-.48-.93,1.18-1.87.66-3a1.32,1.32,0,0,0,.68.67l-.4-.76c.44-.22.57-.2.91.13.85-1-1.39-.48,0-1.41,0,.14.11.15.06.43,1.14-1.11,1.29-2.76,2.41-3.73,1.18.27-.48,1.19.59,1.31a20.7,20.7,0,0,0,1.19-3,8.7,8.7,0,0,1,1.28-2.87l-.3.26c-1.22-1.06,1.43-.87,1.3-2.13,0,.27.6.73.48.58.91-1.06,1.12-2.6,1.67-4.65l.24.42c.68-.55,1.14-1.8,1.7-2.5-.25-.42,0-.83-.63-.83,1.64-.67,1.94-2,2.18-3.23a10,10,0,0,1,.45-1.82,2.5,2.5,0,0,1,1.25-1.41c-.11.26.06.77.15.56l.45-2c-.7-.13-.49.08-1.15.26a1.7,1.7,0,0,1-.16-1.51c.07,1,1,.43,1.54.21-.22,0-.39-.24-.6-.29,1.55-.5-1.22-.7.11-1.7l.31.21c0-.57-.22-1.2.1-1.69.84.07.13.66.73.94.26-.78-.76-2,.21-2.44.11.41-.07.87,0,1.27,1.2-.4,1-.59,1.32-1.1l0,0,.85-1.17-.36.25c-1.63-1.68.32-2.11-.53-3.86.8,1.68.64.45,1.47.84.35-.25.8-.68,1-.45-.48-.85.91-.87.19-2.07.29,0,.25-.66.91-.3.06-.88-.55,0-.88-.14a1.41,1.41,0,0,1,.1-1.09,7.34,7.34,0,0,1,.61-1.08,2.82,2.82,0,0,0,.49-2.68c-.13-1.72-1-2.25-1.1-3.81.58-.38.93.65.93.65a2.23,2.23,0,0,0,.57-2.13c.22.21.46.1.83-.06,0-.63-1-.64-.39-1.35a4.23,4.23,0,0,1,1,.86c-.12-.78-.52-1.61-.64-2.4.54-.1.67.6.95.93-.07-.89,0-2.27-.78-2.68L239.7,5c0-.31.71,0,.81.23.48.84-.47,1-.77,1l-.08-.56c-1.79.2-.13,2.17-.43,3.22l-1.13-.71c.26.43.55.87.79,1.31-.38.16-1.1.15-1.14-.4-.8.6.26.76-.58,1.24-.12,0-.17,0-.2-.08l.17.81c-.22-.2-.89-.09-.59-.49-1,1.11.35,2.32-.69,2.57l0-.13c-.07,1.91.84.41,1.52,2l-2.42.3.83.43c-.08.18-.24.52-.58.35.42.87.41,0,.88.56-1,.67-.38,2.56-1.84,2.32.56.53.8-.68.94.41-1.59-.21-.12,1.17-1.07,1.74-.68-.5,0-1.12-1-.55,1.13.92-.81,1.45-.79,2.2,1,.4-.07,1.61-.12,2.87-.27-.18-1.41,1.86-2.2,2.73l-.16-.1c.94.61.3,1.59.19,2.44a1.27,1.27,0,0,1-.87-1.06l-.3.72a1.25,1.25,0,0,1,.25,1.12l-.68-.51c-.37,1,.11,2.33-1,3.3.66.4,2.42-.06,2.24,1.44-.4-.13-1.07-.38-1.05-.79,0,.13.12.54-.15.68l-.38-.8c-.55.41.38.53.11.94-.53-.26-.54.14-.94-.12,0-.14.41-.27.29-.54a2.17,2.17,0,0,1-1.46.88c.32.1.72.35.61.74-.43.95-.8,0-1.34.41.26.41-.42.8.36,1.22-.14.27-.53.13-.8.13.11.66-1,2.29.08,2.19l.12-.09s0,.06,0,.1h0c0,2-2.22,3-2.76,4.67l-.26-.15c-.24,1.07-1,2.1-.84,3.08a.77.77,0,0,1-1.06,0c-.23.8,0,1.08-1,1.78,0-.95-.52,0,.13-.89-.76.74-1.32.66-1.26,2-.42-.73-1.24.12-1.32.65l.86-.3a4.45,4.45,0,0,1-.88,1.25L216,52c-2.18,1-.43,4.35-3,4.46.23.86,1.08-.63,1.44.25-.69.71-2.47.64-2.65.88-1.25.7.4,1.86-.76,2.73a1.12,1.12,0,0,1,.86,1.57c-.71.7-1.91,0-1.75-.65.12-.2.28-.22.37-.14.09-.33.23-.75-.31-.68l.2.32c-.58.15-1.37,1.23-1.63.61-.19.79.26.62.74.3-1.18.64-1.17,1.55-2.31,2.27.28,0,.73.1.59.25-1.59,1.12,0,1.06-.77,2.12-.89.19-.8-1-1.31.21-.8.34-.82-.5-.83-.93-.26,1.32-1.78,1.32-2.3,1.72l.19-.65a2,2,0,0,1-.52.83l.75.22c-.33.18-.53.41-.75.2.1.59,1.06.59,1,1.58-.58.12-.7,1.36-1.51.81,1.29-.86-.78-.52,0-1.56a1.07,1.07,0,0,1-.63.65c-.11,0-.11-.17-.08-.28-1.63.42.3,1.2-.78,2.24-.25-.51-1-.47-1.06-.22.43-.41.84.42.73,1.1-1,.38-.53,1-.92,1.27l.55-.27c.24.52-.16.81-.52,1.4-.33-.26.24-.63-.06-.6.12,1.2-1.87.49-2.18,1.67-.59.07-.72-.7-1.18-.58-.36,1.32-1.43.29-1.95,1.52.74.3.67.13.49,1.21l1.18-1.69L195,77.82c.47-.39.67-1.17,1-1.32-.07.83-.15.66.48.91-1.36-.25-.84,1.55-2.06,1.64l-1.15-1.35c-1.6.34-1.34,2.36-3,3.25l.65-.16c.26.71-.81.83-1.09,1.45-.33-.5-.75-.41-1.19-.54.3.32-1.11.79-.52,1.82L187,83.41c-1.4.65-.35,2.38-1.65,3.11,0-.78-.81-.72-.31-1.68-.39.29-.8.46-.56.8-.44-.13-.61,1.46-1.29,1.27,0,.33.29.88-.17,1.17a.44.44,0,0,1-.17-.24c.18.25-.47.82.3,1.09-2.31-.69-3.47,2.43-5.43,1.82a26.39,26.39,0,0,1-2.54,2.18c0-.19-.15-.25,0-.3-1.43.2.16,1.86-1.48,2.09-1.16-.45.44-.84-.16-.92-1.16-1.58-1.46,1.12-2.91.63l.16-.22c-1-.2-1.29,1.57-2.47,2.07a.47.47,0,0,0-.13-.26c-.27,1.34-1.63,2.34-2.63,3.1,0-.85.33-.6-.23-1.2-.45.33.7,1-.21,1.71-.51-.22-1.38-.21-1.83-.92l.91-.48c-.94-.74-1.19.6-1.76.66l-.13-.45c-1.36.81-.9,1.89-2.48,2.54l.3.25c-.38,1.48-1-.29-1.5.86l-.72-1a16,16,0,0,1-2.54,2.44c.27-1,1.31-1.93,1.85-2.69-.57.21-1.88.82-2,1.48.19-.19.37-.58.66-.49a3.51,3.51,0,0,1-2.27,2.34c-.58-2.23-3.15.63-4.58-.89-1.78,1.42-4.14.87-6.45,1.72,1.31,1.47-.68.26-.06,2-.54.24-.76.26-.85.16l-2-.68c-.53-.43.44-.51.29-.9-1.26.14-.7-.64-1.62-.93.32.6-.21,1-1,.92l1.17.6c-1.51,1.34-1.82-1.17-3.33.17l.43-.69a17.72,17.72,0,0,1-2,.77,2.92,2.92,0,0,0-1.88,1.48c-.2-.18-.49-.65-.12-.84-2.17.11-4.56,2.28-6.36,1.64l.11-.47c-.38.2-.6.95-1.16.53,0-.19.11-.46-.08-.47-.19.17-1,.87-1.56.65l.41-.54c-2.16-.41-3.13,1.49-4.92,2-.09-1.33-1.77-1.57-2.61-1.79l0-.19c-2.46-.13-4.15,1.16-6.46,1.71-1.42-1.32-4.82-.74-7.06-1.64.33.26-.11,1-.53,1.14-.52-.29-1.55.84-1.38-.36l.19,0c-.32-1.22-1.44-.91-2.29-1.06l-.28,1.56c-2-2.55-6,.15-7-2-.6.34-1.26.25-1.86.52l.16-.83a13.15,13.15,0,0,0-4-.86l.48-.53c-1-.24-1.76,2.17-2.73,2l0-1.3c-1.83-.26-3.35-1.87-5.38-1.18.07-.17.21-.52.51-.49-.83-.24-3-1.64-3.15.12.28-1.11-1.81-.53-2.91-.36l.38-.76c-1.09.77-1.21,1-2.42,1-.23-.19,0-.71.25-.4-.76-.7-.92.53-1.87-.24l.56-.38c-.89-.35-.9-.06-1.6.37a1.54,1.54,0,0,1-1.56-1.52c-.27.4-1,.82-1.44.44a.54.54,0,0,1,.4-.45c-1.33-1-2.56.07-3.31-1.09a.72.72,0,0,0,0-.53,10.73,10.73,0,0,1,2,.93c.26-.73-.64-1.23.48-1.93-.95.25-2.7.91-3.5.21a1,1,0,0,1,0-.3l.13,0a.69.69,0,0,0-.63-.11,2.28,2.28,0,0,0-.68-.52c.13-.63-1-.75-1.41-1-.29.79-.86.42-.54,1.3-.05-.09.13-.06.46,0a.57.57,0,0,0,.24,0l-.06.06c.32.1.74.24,1.2.41-.53.25-1.07.43-1.42-.21-.45.4-.94.81-1.19,1a6.25,6.25,0,0,0-.66-1.81,2.75,2.75,0,0,1-.4-1.4c-1.59-.23-3.42-1.28-5-.27-.49,0-.27-.63-.31-.92.3,0,.57.12.79,0-1,0-2.44-1-3.14-.09-.78-.93,1-.62-.43-1.16l.34-.2c-.91-1.52-2.29-1.49-3.72-1.55s-2.88-.21-3.77-2c.13.23.2.35.15.53A20.29,20.29,0,0,0,35.24,89c-1.73-1-3.48-1.91-4.48-3.74-.66-.91-1.17-.41-2-.37l.36-.86-1.53.15c-.87-.18-1.09-1-1.38-1.86a2.13,2.13,0,0,0-1.9-1.7l-.19.64c-.47-.57-2-1.25-1.41-1.7-.13,0-.59.32-.6-.1l.29-.37-1.87-.57c-.81-1.17,1.41-1.26,0-2.65-.68-.35-2.53-.39-2.54,0A.85.85,0,0,1,18,77l-.69-.28c-1,.94-2.45,1.6-1.81,3.47l1.49.17-.16.76-.8-.65c0,.85.67.68,1.23.67a1.12,1.12,0,0,0-.11.89l1.78-.21c-.25.51-1.12.46-.71,1.22.83-.1.4-1.28,1.36-1,0,.86-.44,1.14.42,1.18a.6.6,0,0,1-.73.36c.74.07,1.33.93,2,.56-.06,1,1.7,1.15.83,2.13a3.24,3.24,0,0,1,2,.13c-1.79.63,1.6,1.33.36,2.52,1.47-.67,2.57,1.15,4.1,1.32-.12,0-.38.14-.43,0,.54.54.45,1.05.71,1.53.76-.91,1.89-.49,2.82-.75.13,1.44-1.24.84-1.62,1.89.5-.81,1.88.09,2.06-.74.2,1,.32.61.09,1.63.91-1.16.69.15,1.67-.29.46,1.17-.52,1.3.66,1.54C34.77,95.78,33.65,95.67,33.65,95.67Zm24.93,9.75v0l-.53-.16Zm2.07.8a7.42,7.42,0,0,0-.88-.38c0-.3.22-.55.42-.45C60,105.53,60.43,105.87,60.66,106.23ZM58.5,99.09c.36,0,.4.21.38.39a4.23,4.23,0,0,0-.59-.12l-.08.08A1.47,1.47,0,0,1,58.5,99.09Z" transform="translate(0 -0.4)"/><path class="cls-1" d="M57.51,99.89a.48.48,0,0,1-.15,0,1.62,1.62,0,0,0,.12.25l.21-.2Z" transform="translate(0 -0.4)"/><path class="cls-1" d="M225,40.68l0,0a.32.32,0,0,1,.15,0Z" transform="translate(0 -0.4)"/><polygon class="cls-1" points="90.11 114.91 90.14 114.69 89.92 114.86 90.11 114.91"/><path class="cls-1" d="M232.73,31a.41.41,0,0,0,.26-.06A.53.53,0,0,0,232.73,31Z" transform="translate(0 -0.4)"/><path class="cls-1" d="M234.89,26.2l.52-.6A3.28,3.28,0,0,0,234.89,26.2Z" transform="translate(0 -0.4)"/><path class="cls-1" d="M236.6,22.5a1.65,1.65,0,0,0-.32-.19h0Z" transform="translate(0 -0.4)"/><path class="cls-1" d="M203.13,77.36a.48.48,0,0,0-.09.14C202.9,77.88,203,77.65,203.13,77.36Z" transform="translate(0 -0.4)"/><path class="cls-1" d="M214.4,61.68a3.3,3.3,0,0,1-.06.73C214.6,62.18,214.77,62,214.4,61.68Z" transform="translate(0 -0.4)"/><path class="cls-1" d="M187.23,92.15h0l-.11.08Z" transform="translate(0 -0.4)"/><path class="cls-1" d="M213.78,63.1a1,1,0,0,0,.56-.69A1.47,1.47,0,0,0,213.78,63.1Z" transform="translate(0 -0.4)"/><path class="cls-1" d="M241.5,5.54l.07-.19a.29.29,0,0,1-.13,0Z" transform="translate(0 -0.4)"/><path class="cls-1" d="M241.44,5.31l-.06-.23C241.37,5.17,241.36,5.26,241.44,5.31Z" transform="translate(0 -0.4)"/><path class="cls-1" d="M241.26,4.58l.12.49C241.42,4.92,241.48,4.73,241.26,4.58Z" transform="translate(0 -0.4)"/><path class="cls-1" d="M240,10.74l.28.13A.73.73,0,0,0,240,10.74Z" transform="translate(0 -0.4)"/><path class="cls-1" d="M239.69,12.35c.17-.36.89-.79.84-1.37l-.22-.11C240.69,11.23,239.29,11.87,239.69,12.35Z" transform="translate(0 -0.4)"/><path class="cls-1" d="M234.29,17.83c.24-.39.41-.8.61-1.21-.37.13-.87.3-.79-.3C232.74,17.65,234.93,16.2,234.29,17.83Z" transform="translate(0 -0.4)"/><path class="cls-1" d="M232.51,21.59c.09-.72-.45-.15-.61-.24C232,21.87,232.06,22,232.51,21.59Z" transform="translate(0 -0.4)"/><path class="cls-1" d="M219.76,48.42l-.62-.47C219,48.49,219.39,48.12,219.76,48.42Z" transform="translate(0 -0.4)"/><polygon class="cls-1" points="219.9 55 220.6 54.81 220.17 54.2 219.9 55"/><polygon class="cls-1" points="213.51 54.68 213.56 54.41 213.27 55.33 213.51 54.68"/><path class="cls-1" d="M178.16,89.35l.66.7C179,89.7,178.51,88.77,178.16,89.35Z" transform="translate(0 -0.4)"/><path class="cls-1" d="M159.79,100.42c-.4-.33-1.06-.35-1.23.19C159,100.51,159.62,100.64,159.79,100.42Z" transform="translate(0 -0.4)"/><polygon class="cls-1" points="96.78 108.05 97.23 107.79 96.4 107.95 96.78 108.05"/></g></g></svg>