<svg xmlns="http://www.w3.org/2000/svg" viewBox="0 0 126.09 105"><defs><style>.cls-1,.cls-2{fill:none;stroke:#0078a4;stroke-width:6px;}.cls-2{stroke-linecap:round;}.cls-3{fill:#0078a4;}</style></defs><title>SEM@2x</title><g id="Layer_2" data-name="Layer 2"><g id="Layer_1-2" data-name="Layer 1"><path class="cls-1" d="M83.35,73A44,44,0,0,1,58.17,90.25a38.21,38.21,0,0,1-3.93.82,44.16,44.16,0,0,1-12.79.17,40.06,40.06,0,0,1-4.92-.93,43.81,43.81,0,0,1-12.79-5.47c-.72-.44-1.42-.92-2.11-1.41A44.29,44.29,0,1,1,83.35,73Z"/><line class="cls-2" x1="83.35" y1="72.98" x2="123.09" y2="102"/><path class="cls-3" d="M36.53,59.66V90.31a43.81,43.81,0,0,1-12.79-5.47V59.66Z"/><path class="cls-3" d="M54.24,51.78V91.07a44.16,44.16,0,0,1-12.79.17V51.78Z"/><path class="cls-3" d="M71,35V84.76a43.87,43.87,0,0,1-12.79,5.49V35Z"/></g></g></svg>